<?xml version="1.0" standalone="no"?>
<!DOCTYPE svg PUBLIC "-//W3C//DTD SVG 20010904//EN"
 "http://www.w3.org/TR/2001/REC-SVG-20010904/DTD/svg10.dtd">
<svg version="1.0" xmlns="http://www.w3.org/2000/svg"
 width="354.000000pt" height="354.000000pt" viewBox="0 0 354.000000 354.000000"
 preserveAspectRatio="xMidYMid meet">
<metadata>
Created by potrace 1.16, written by Peter Selinger 2001-2019
</metadata>
<g transform="translate(0.000000,354.000000) scale(0.100000,-0.100000)"
fill="#000000" stroke="none">
<path d="M1910 2803 c-141 -108 -317 -295 -366 -389 -8 -16 -23 -42 -33 -59
-52 -87 -91 -245 -91 -371 0 -66 23 -224 35 -244 3 -5 -2 -22 -12 -37 -9 -15
-13 -25 -8 -20 10 9 55 -31 55 -50 0 -7 18 -52 40 -100 40 -85 40 -102 6 -103
-19 0 9 -18 33 -22 15 -2 32 -16 45 -38 68 -114 91 -145 94 -124 2 11 -6 55
-18 97 -11 42 -20 79 -20 82 0 12 77 38 109 37 19 -1 39 2 45 7 6 4 39 18 74
31 34 12 66 29 70 36 4 7 34 27 67 45 188 100 305 211 305 290 0 35 -63 86
-131 105 -33 9 -62 20 -64 24 -3 4 7 29 22 55 46 83 26 135 -66 176 -70 31
-161 21 -101 -11 30 -16 53 -67 46 -105 -8 -39 -75 -135 -113 -161 -15 -10
-57 -34 -93 -52 -36 -18 -81 -46 -100 -61 -92 -72 -142 -84 -154 -38 -10 38
-6 278 5 341 39 205 133 395 286 570 149 171 152 179 33 89z m249 -860 c50
-63 36 -125 -49 -217 -59 -63 -87 -80 -235 -147 -38 -18 -85 -45 -103 -60 -18
-16 -41 -29 -50 -29 -10 0 -24 -6 -31 -12 -18 -18 -47 21 -56 75 -4 23 -13 66
-21 96 -7 29 -11 58 -8 62 10 16 58 37 116 48 65 14 133 44 165 74 22 20 51
38 88 56 11 5 40 25 65 44 55 44 91 47 119 10z"/>
</g>
</svg>
